REM DIRINDEX 1\2,1\4,1\3\5,1\3\6,1\3\7
REM DIRNAME cjc083,folder01,folder02,folder03,folder04,folder05,folder06
TITLE ""
FILE "CD1Track40.mp3" MP3
  TRACK 01 AUDIO
    TITLE "0:"
    INDEX 01 00:00:00
  TRACK 02 AUDIO
    TITLE "5:cjc083_0820"
    INDEX 01 00:00:25
  TRACK 03 AUDIO
    TITLE "0:"
    INDEX 01 00:01:42
  TRACK 04 AUDIO
    TITLE "6:cjc083_0821"
    INDEX 01 00:02:10
  TRACK 05 AUDIO
    TITLE "0:"
    INDEX 01 00:03:63
  TRACK 06 AUDIO
    TITLE "5:cjc083_0822"
    INDEX 01 00:04:27
  TRACK 07 AUDIO
    TITLE "0:"
    INDEX 01 00:05:46
  TRACK 08 AUDIO
    TITLE "6:cjc083_0823"
    INDEX 01 00:06:14
  TRACK 09 AUDIO
    TITLE "0:"
    INDEX 01 00:07:33
  TRACK 10 AUDIO
    TITLE "5:cjc083_0824"
    INDEX 01 00:07:74
  TRACK 11 AUDIO
    TITLE "0:"
    INDEX 01 00:09:18
  TRACK 12 AUDIO
    TITLE "6:cjc083_0825"
    INDEX 01 00:09:57
  TRACK 13 AUDIO
    TITLE "0:"
    INDEX 01 00:11:09
  TRACK 14 AUDIO
    TITLE "5:cjc083_0826"
    INDEX 01 00:11:48
  TRACK 15 AUDIO
    TITLE "0:"
    INDEX 01 00:12:67
  TRACK 16 AUDIO
    TITLE "6:cjc083_0827"
    INDEX 01 00:13:39
  TRACK 17 AUDIO
    TITLE "0:"
    INDEX 01 00:16:36
  TRACK 18 AUDIO
    TITLE "5:cjc083_0828"
    INDEX 01 00:17:08
  TRACK 19 AUDIO
    TITLE "0:"
    INDEX 01 00:19:03
  TRACK 20 AUDIO
    TITLE "6:cjc083_0829"
    INDEX 01 00:19:50
  TRACK 21 AUDIO
    TITLE "0:"
    INDEX 01 00:21:51
  TRACK 22 AUDIO
    TITLE "5:cjc083_0830"
    INDEX 01 00:22:17
  TRACK 23 AUDIO
    TITLE "0:"
    INDEX 01 00:24:37
  TRACK 24 AUDIO
    TITLE "6:cjc083_0831"
    INDEX 01 00:25:05
  TRACK 25 AUDIO
    TITLE "0:"
    INDEX 01 00:28:57
  TRACK 26 AUDIO
    TITLE "5:cjc083_0832"
    INDEX 01 00:29:27
  TRACK 27 AUDIO
    TITLE "0:"
    INDEX 01 00:31:16
  TRACK 28 AUDIO
    TITLE "6:cjc083_0833"
    INDEX 01 00:31:57
  TRACK 29 AUDIO
    TITLE "0:"
    INDEX 01 00:33:28
  TRACK 30 AUDIO
    TITLE "5:cjc083_0834"
    INDEX 01 00:33:69
  TRACK 31 AUDIO
    TITLE "0:"
    INDEX 01 00:36:09
  TRACK 32 AUDIO
    TITLE "6:cjc083_0835"
    INDEX 01 00:36:56
  TRACK 33 AUDIO
    TITLE "0:"
    INDEX 01 00:38:55
  TRACK 34 AUDIO
    TITLE "5:cjc083_0836"
    INDEX 01 00:39:19
  TRACK 35 AUDIO
    TITLE "0:"
    INDEX 01 00:40:28
  TRACK 36 AUDIO
    TITLE "6:cjc083_0837"
    INDEX 01 00:40:73
  TRACK 37 AUDIO
    TITLE "0:"
    INDEX 01 00:42:06
  TRACK 38 AUDIO
    TITLE "5:cjc083_0838"
    INDEX 01 00:42:49
  TRACK 39 AUDIO
    TITLE "0:"
    INDEX 01 00:44:09
  TRACK 40 AUDIO
    TITLE "6:cjc083_0839"
    INDEX 01 00:44:52
  TRACK 41 AUDIO
    TITLE "0:"
    INDEX 01 00:45:63
  TRACK 42 AUDIO
    TITLE "5:cjc083_0840"
    INDEX 01 00:46:29
  TRACK 43 AUDIO
    TITLE "0:"
    INDEX 01 00:47:42
  TRACK 44 AUDIO
    TITLE "6:cjc083_0841"
    INDEX 01 00:48:12
  TRACK 45 AUDIO
    TITLE "0:"
    INDEX 01 00:49:33
  TRACK 46 AUDIO
    TITLE "5:cjc083_0842"
    INDEX 01 00:49:70
  TRACK 47 AUDIO
    TITLE "0:"
    INDEX 01 00:51:03
  TRACK 48 AUDIO
    TITLE "6:cjc083_0843"
    INDEX 01 00:51:48
  TRACK 49 AUDIO
    TITLE "0:"
    INDEX 01 00:52:69
  TRACK 50 AUDIO
    TITLE "5:cjc083_0844"
    INDEX 01 00:53:29
  TRACK 51 AUDIO
    TITLE "0:"
    INDEX 01 00:54:42
  TRACK 52 AUDIO
    TITLE "6:cjc083_0845"
    INDEX 01 00:55:03
  TRACK 53 AUDIO
    TITLE "0:"
    INDEX 01 00:56:61
  TRACK 54 AUDIO
    TITLE "5:cjc083_0846"
    INDEX 01 00:57:35
  TRACK 55 AUDIO
    TITLE "0:"
    INDEX 01 00:58:42
  TRACK 56 AUDIO
    TITLE "6:cjc083_0847"
    INDEX 01 00:59:16
  TRACK 57 AUDIO
    TITLE "0:"
    INDEX 01 01:00:45
  TRACK 58 AUDIO
    TITLE "7:cjc083_0848"
    INDEX 01 01:02:06
  TRACK 59 AUDIO
    TITLE "0:"
    INDEX 01 01:13:69
